<svg xmlns="http://www.w3.org/2000/svg" xmlns:xlink="http://www.w3.org/1999/xlink" viewBox="0 0 695.43 644.95"><defs><style>.cls-1{fill:none;}.cls-2,.cls-5,.cls-6{fill:#c1272d;}.cls-3{clip-path:url(#clip-path);}.cls-4{fill:#fff;}.cls-5{stroke:#ff0;stroke-width:4px;}.cls-5,.cls-6{stroke-miterlimit:10;}.cls-6{stroke:#fff;stroke-width:2px;}</style><clipPath id="clip-path"><circle class="cls-1" cx="333.54" cy="325.45" r="198.5"/></clipPath></defs><title>La_bodega_logo_light</title><g id="Layer_2" data-name="Layer 2"><g id="Layer_3" data-name="Layer 3"><path class="cls-2" d="M75.43,291.81a199.46,199.46,0,0,1,4.92-31c.61-2.55,1.28-5.08,2-7.62s1.48-5,2.22-7.54,1.67-5,2.49-7.46,1.83-4.92,2.74-7.38,2-4.84,3-7.26,2.15-4.79,3.24-7.17,2.34-4.69,3.51-7,2.48-4.61,3.75-6.91a198.65,198.65,0,0,1,17.45-26.06c-5.48,8.9-10.67,17.92-15.39,27.17l-3.46,7c-1.09,2.35-2.22,4.69-3.28,7s-2.11,4.74-3.12,7.13-2,4.79-2.92,7.21-1.88,4.83-2.77,7.27l-2.56,7.34c-.79,2.47-1.63,4.93-2.39,7.41l-2.21,7.46C79.78,271.42,77.45,281.56,75.43,291.81Z"/><path class="cls-2" d="M236.13,570.81a202.51,202.51,0,0,1-29.81-13.18c-2.39-1.32-4.76-2.65-7.13-4l-7-4.25c-2.29-1.48-4.54-3-6.81-4.52l-6.67-4.74-6.47-5-6.31-5.2-6.1-5.44c-2-1.86-3.95-3.75-5.91-5.65a203.18,203.18,0,0,1-21.32-24.66c7.36,8,15,15.69,22.93,23l6,5.38,6.18,5.22,6.3,5.08,6.44,4.88,6.55,4.74,6.69,4.55,6.79,4.39,6.91,4.21C216.75,561.1,226.34,566.12,236.13,570.81Z"/><path class="cls-2" d="M595.28,372a246.54,246.54,0,0,1-7,32.53A259.56,259.56,0,0,1,577,435.89,254.78,254.78,0,0,1,494.29,539a260.71,260.71,0,0,1-28.12,17.93A247,247,0,0,1,436,570.81a281.2,281.2,0,0,0,29.5-15.19,263.54,263.54,0,0,0,27.45-18.49,274.1,274.1,0,0,0,82-102.18,262.87,262.87,0,0,0,12-30.83A280.41,280.41,0,0,0,595.28,372Z"/><path class="cls-2" d="M544.05,166.5a135.33,135.33,0,0,1,11.57,14.05c1.8,2.44,3.47,5,5.15,7.51s3.2,5.16,4.74,7.78,3,5.31,4.34,8,2.69,5.44,3.9,8.23a134.28,134.28,0,0,1,6.3,17.07l-8.41-16.05c-.72-1.32-1.44-2.64-2.14-4l-2.16-3.95-2.19-3.94-2.24-3.91-2.25-3.9-2.3-3.88L556,185.69c-.8-1.27-1.58-2.55-2.36-3.84Z"/><g class="cls-3"><path class="cls-4" d="M145.21,496.44l6.17-.42.33-4.91c.83-.07,1.51-.15,2.18-.16,4.38-.06,4.1.66,4.09-4.05,0-2.79,0-5.58-.2-8.36-.16-2.19.21-3.75,3.12-3.39l.51-4.36,3.82-.4c.7-3.29.78-3.33,6.58-2.76l.54,2.8,6.05.28,2.37,13,3.42.29.23-4.28c4.44-1.21,5-.84,5.33,3.88a5.07,5.07,0,0,0,.91.27c4.81.69,4.88.63,4.88-3.82v-20.4h22.38v31.43c2.8,0,5.29.09,7.75-.08.43,0,1.11-1.16,1.12-1.79.05-9.85,0-19.7,0-29.55,0-1.18.12-2.86.91-3.44,1.42-1,5.64,0,6.57,1.26,2,2.68,4.06,5.33,5.95,8.09,2.12,3.09,3.94,6.48,9.12,5v14.57c1,.09,1.72.12,2.45.23,2.48.37,3.59-.56,3.17-2.95s.6-3.33,3.13-3c1.57.22,2.13-.51,2.11-2-.06-4.76.11-9.53-.1-14.28-.07-1.63-1-3.23-1.78-5.44,2.25,0,4.14.48,5.39-.15,1-.53,1.34-2.37,2.19-4.06,2.38,0,5.31-.06,8.24.06.47,0,1.32.92,1.28,1.34-.31,2.79,1.37,3.07,3.64,2.87,1.59-.15,3.34.52,2.38,2.08-2.76,4.48-.77,9.22-1.44,13.78-.33,2.23.71,2.89,3,2.71s4.29,0,6.31,0V456.14c7.63,0,15.34,0,23.05.05.46,0,1.3.68,1.31,1.06a5.64,5.64,0,0,1-.68,2.38c-.31.64-1.23,1.18-1.24,1.76-.09,7.46-.06,14.92-.06,22.34,3,.81,3.45.59,3.45-2,0-1.81.42-2.76,2.67-1.77,0,1.26,5.73,12.56,5.73,14,2.72,1,1.74,0,5,0,0-2.67-1.35-15.34-1.35-18.19,2.72.15,3.72-1,3.69-3.34a2.1,2.1,0,0,1,1.43-1.51c4.41-.12,8.83-.07,13.46-.07.12,1.55.22,2.9.34,4.37h3.05V462.66q0-13.43,0-26.85c0-1.08-.39-2.36,1.46-2.66.32,0,.65-1,.67-1.62.07-2.38.11-4.77,0-7.14-.09-2,.05-3.6,3.32-3,0-3.64.11-7,0-10.3-.08-1.87.35-3.05,2.68-2.88l.3-2.6,2.54-.45c0-1.91-.08-3.79,0-5.65.09-1.51-.8-3.36,1.41-4.3.18-.07.18-.6.2-.92.42-5.55.82-11.11,1.23-16.67.06-.7.16-1.41.31-2.65.51.81.85,1.1.88,1.43.5,5.39.9,10.79,1.47,16.17A18.83,18.83,0,0,0,366.8,396a7,7,0,0,1,.34,1.9c.05,1.89-.08,3.78.08,5.66,0,.63.71,1.24,1.16,1.82s1.08,1.13,1.57,1.73c.24.31.34,1,.54,1,2.91.13,2,2.19,2,3.65.09,3,0,6.06,0,9.3,2.86-.3,3.33,1.15,3.16,3.27-.15,1.88,0,3.77,0,5.66,0,1.36-.31,2.78,1.51,3.57.42.19.55,1.3.55,2,0,8.95-.09,17.89-.14,26.84,0,1.06.12,2.12.15,3.19.05,1.66.89,2.14,2.81,1.49V451.92l2.9-.81c.52-1.47-.51-3.53,2-4.09.25-.06.31-1.37.24-2.09-.13-1.55.62-2.08,2.15-1.94.34,0,.7,0,1,0,4.14,0,4.14,0,4.45,4,1.84.24,3.13,1,2.73,3.14-.05.28.36.91.61.93,2.32.2,2,1.77,2,3.25q0,10.95.07,21.91v2.56c2,.4,4.33.23,5.29,1.22s.41,3.1.52,4.69c2.86.71,3.17.53,3.22-2,0-2,0-3.94,0-5.91,0-1.05-.46-2.37,1.39-2.73.3-.06.47-1.26.48-1.94.1-4.92-.09-9.86.29-14.76.18-2.34,1.38-4.62,2.16-6.92.29-.84.68-1.64,1-2.46.78-1.74,1.64-3.45,2.33-5.22a9.61,9.61,0,0,0,.85-3.47,20.33,20.33,0,0,1,1.64-8.56c1.17-2.8,1.06-6.09,1.43-9.18a9.49,9.49,0,0,1,.61-3.47c.1,1,.21,1.92.28,2.88.32,4.22.15,8.44,2.5,12.41.91,1.53.18,3.87.51,5.79a23,23,0,0,0,1.54,4.24c.09.22.39.37.46.59,1.47,4.45,3.5,8.82,4.22,13.37.77,4.82.22,9.82.39,14.74,0,.78.8,1.53,1.15,2.31a5.89,5.89,0,0,1,.67,2c.1,1.88,0,3.77,0,5.66,0,2.79.19,2.89,3.29,2.17a12,12,0,0,0,.17-1.63c0-1.43.6-2.1,2.19-2a40.77,40.77,0,0,0,4.69,0c1.91-.11,3.24.12,3.08,2.45,0,.49,1.14,1.06,1.77,1.58.05,0,.17,0,.26,0,5.45.34,5.46.35,5.65-4.79,0-1.14,0-2.28,0-4.08h11.21c3.45,0,3.37,0,3.22-3.34-.13-2.87.06-5.76-.12-8.62a9.73,9.73,0,0,0-1.18-3.64c-.78-1.5-.18-2.8,1.58-2.93a13.26,13.26,0,0,1,2.09,0c1.56.13,2.3-.46,2.07-2-.29-1.91.67-2.42,2.56-2.33,2.5.13,5,0,7.78,0,.16,1.33.3,2.51.48,3.93,1.3.1,2.64.19,4,.31,2,.18,2.63,1.46,1.69,3.15a7.9,7.9,0,0,0-1.14,3.3c-.13,4.27,0,8.54-.08,12.81,0,1.72.36,2.63,2.46,2.35,2.42-.34,3.27.86,3,3a21.54,21.54,0,0,0,0,2.8h5.41V470c5.15,1.57,7-1.68,9.09-4.73,1.88-2.76,3.94-5.41,5.93-8.09,1-1.34,5.72-2.41,7-1.39a3.43,3.43,0,0,1,.7,2.42c0,9.69-.09,19.37-.13,29.05,0,3.31,0,3.31,3.53,3.3,1.48,0,3,0,4.44,0a5,5,0,0,0,.86-.25V458.92c4.17,0,8,0,11.78,0,2.6,0,5.21,0,7.81-.18,2.1-.13,2.94.54,2.91,2.63-.11,6.32,0,12.64,0,19,0,3.43,0,3.43,3.64,3.1.68-.06,1.36-.15,2-.22,1.06-5,1.06-5,5.25-4.14.93,4.61.93,4.61,4.48,3.84,0-1.32-.09-2.71,0-4.07.13-1.57-.72-3.27,1.28-4.63.72-.48.3-2.45.42-4L575,470c.17-1,.31-1.85.5-3,1.58,0,3.19,0,4.79,0,.45,0,1.28.4,1.27.58-.19,3,2.2,2.48,4.38,2.58.17,1.46.34,2.87.52,4.46,3.14-.36,3.24,1.44,3.12,3.63-.19,3.28-.08,6.57-.23,9.84-.09,1.83.6,2.57,2.55,2.38a32.72,32.72,0,0,1,3.42,0c.24.41.39.54.4.69.34,4.37.33,4.36,4.9,4.57.51,0,1,.16,1.53.24v32c-1.12.08-2.24.24-3.36.24q-52,.13-104,.26-57.6.16-115.22.39-48.62.12-97.23.08-60.75,0-121.49-.23c-4.17,0-8.34,0-12.51,0-1,0-2.07-.16-3.1-.24Z"/></g><path class="cls-2" d="M333.54,645C155.72,645,11.06,500.29,11.06,322.48S155.72,0,333.54,0,656,144.66,656,322.48,511.35,645,333.54,645Zm0-633.83c-171.69,0-311.36,139.67-311.36,311.36S161.85,633.83,333.54,633.83,644.89,494.16,644.89,322.48,505.22,11.12,333.54,11.12Z"/><path class="cls-4" d="M333.54,533C217.46,533,123,438.55,123,322.48S217.46,112,333.54,112,544.05,206.4,544.05,322.48,449.61,533,333.54,533Zm0-409.91c-110,0-199.4,89.45-199.4,199.4s89.45,199.39,199.4,199.39,199.39-89.45,199.39-199.39S443.48,123.08,333.54,123.08Z"/><path class="cls-5" d="M109.54,373.05c.94,9-1.58,17-11.6,22.63,10.87-2.76,16.26,3.37,17.1,11.39L120,454.2c2.09,20.05-5.2,30.52-27.66,37.29L21.1,513,2.16,331.23l76.6-23.09c15.43-4.65,24.19,1.75,25.58,15ZM44.46,351.31l5,47.63,18.4-5.55c2.71-.82,4.72-3,4.38-6.23L68.1,347.8c-.24-2.25-1.18-3.26-3.89-2.44Zm32.2,73.28c-.42-4-3-4.53-6.5-3.47l-17.87,5.39,4.47,42.86,19.76-6c3.25-1,4-2.23,3.67-5Z"/><path class="cls-5" d="M238.19,420.87c1.44,13.78-3.53,27.69-25.46,34.3l-45.47,13.71c-21.92,6.61-29.4-3.54-30.84-17.33L122.63,319.21c-1.49-14.28,5.66-26,24.07-31.56L195.42,273c18.41-5.54,27.49,1.28,29,15.57ZM166.53,314.51c-2.71.81-3.39,2.31-3.15,4.57l11.54,110.78c.29,2.76.93,3.6,4.18,2.62L194,428c3.25-1,3.68-2.14,3.4-4.9L185.84,312.3c-.23-2.25-1.18-3.26-3.88-2.44Z"/><path class="cls-5" d="M354.35,383.52c2.09,20.05-5.2,30.52-27.66,37.29l-69.57,21L238.19,260.07l76.87-23.18c15.43-4.65,24.19,1.75,25.58,15ZM280.48,280.15l12.31,118.06,18.4-5.55c3.25-1,3.69-2.15,3.4-4.91L303,277c-.23-2.26-1.17-3.27-3.88-2.45Z"/><path class="cls-5" d="M354.58,225l76.33-23,10.29,31.8-42.76,12.89,4.49,43.11L435.41,280l3.26,31.33-32.48,9.8,4.13,39.6,41.14-12.41-3.24,35.88-74.7,22.53Z"/><path class="cls-5" d="M453.51,217.9c-1.39-13.29,5.55-24.43,21-29.08l56-16.89,10.29,31.8-43,13c-2.7.82-3.38,2.32-3.15,4.57l11.23,107.78c.24,2.26,1.18,3.27,3.89,2.45l17.86-5.39-7.47-71.68,38.17-11.51,10.91,104.77-68.48,20.65c-22.46,6.77-31.42,1.2-33.51-18.85Z"/><path class="cls-5" d="M620.72,308.89l-1.16,23.62L580,344.43,596.56,152l42-12.65,54.4,171-39.52,11.92-5.87-21.5Zm1.33-30.13,18.14-5.47-15.65-61.72Z"/><path class="cls-6" d="M309.07,480h10.11l5.42,17.24V480h10.91V522.9H324.6L318.88,505V522.9h-9.81Z"/><path class="cls-6" d="M359.82,522.9h-11.2V512L338.44,480h11l4.76,20.26L359,480h11L359.82,512Z"/><path class="cls-2" d="M306.37,157.15h10.91v43.2H328l-1.83,9.89H306.37Z"/><path class="cls-2" d="M341.81,203.65l-.95,6.59H330.17l9.59-53.09h11.35l9.59,53.09H350l-.95-6.59Zm1.17-8.42h4.91l-2.42-18.82Z"/><path class="cls-4" d="M134.77,158.93l16.88.6L148,164.36l-16-.89-.55.71,10.29,8.37-3,3.95L113.6,156.06l3.53-4.63q3.95-5.18,7.57-6a8.52,8.52,0,0,1,7.44,1.94,9.37,9.37,0,0,1,2.63,11.53Zm-6.62,2.57.95-1.26q4.28-5.61.16-9-3.87-3.14-8,2.33l-1.08,1.4Z"/><path class="cls-4" d="M147.31,123.52l-9,9.54,5.48,5.56,8.77-9.26,3.24,3.28L147,141.9l7.63,7.74,9-9.53,3.23,3.28-12.43,13.13-22.82-23.16,12.44-13.13Z"/><path class="cls-4" d="M170.57,99.64l3.57,4.62a13.18,13.18,0,0,0-9,2.81,11.68,11.68,0,0,0-4.31,8.28,12.66,12.66,0,0,0,2.71,9.18,11.51,11.51,0,0,0,8,4.65,11.09,11.09,0,0,0,8.7-2.63,10.76,10.76,0,0,0,2.88-3.5,13.37,13.37,0,0,0,.92-2.24,26.24,26.24,0,0,0,.7-2.84l3.63,4.7a18,18,0,0,1-5.37,7.56,16,16,0,0,1-23.22-2.5,17.29,17.29,0,0,1-3.62-11.43,17,17,0,0,1,6.44-13.12A16.18,16.18,0,0,1,170.57,99.64Z"/><path class="cls-4" d="M183.91,107.47a16.65,16.65,0,0,1-1.5-13,17,17,0,0,1,7.87-10.55,15.6,15.6,0,0,1,12.63-1.77,16,16,0,0,1,10.14,8,16.8,16.8,0,0,1,1.57,13.07,17.25,17.25,0,0,1-8,10.6,16.18,16.18,0,0,1-11.81,2A15.66,15.66,0,0,1,183.91,107.47Zm4.26-2.49a11.48,11.48,0,0,0,7.45,5.94,11.13,11.13,0,0,0,8.82-1.22,12,12,0,0,0,5.64-7.57,12.59,12.59,0,0,0-1.28-9.5,11.71,11.71,0,0,0-7.26-5.89,11,11,0,0,0-9,1.29,11.89,11.89,0,0,0-5.58,7.53A12.29,12.29,0,0,0,188.17,105Z"/><path class="cls-4" d="M230.77,85.14l14.36,9.1-5.48,2.36L226.2,87.71l-.8.35,5,12.54-4.48,1.93L213.75,71.89,219,69.63q5.89-2.53,9.4-1.38a8.86,8.86,0,0,1,5.55,5.47,9.75,9.75,0,0,1,.41,6.37A9.12,9.12,0,0,1,230.77,85.14Zm-7-1.11,1.42-.61q6.36-2.74,4.38-7.76-1.87-4.71-8.06-2l-1.59.69Z"/><path class="cls-4" d="M248.93,92.89,240.1,61l6.47-2a23.81,23.81,0,0,1,7.61-1.29,13.76,13.76,0,0,1,6.12,1.56q6,3,8.05,10.37a16.26,16.26,0,0,1-1.67,13.39,15.59,15.59,0,0,1-4.36,4.75,24.45,24.45,0,0,1-7,3.09Zm3.4-5.94,2.1-.63a18,18,0,0,0,5-2.27,11.31,11.31,0,0,0,3.12-3.43,11.74,11.74,0,0,0,1.09-9.48,11.34,11.34,0,0,0-5.75-7.47q-3.86-2-9.81-.17l-2.1.64Z"/><path class="cls-4" d="M276.17,51.19l6.89,32.37-4.73,1.11L271.45,52.3Z"/><path class="cls-4" d="M289.9,81.88l-4-35.19L312,68.82l-2.61-22.9,4.8-.62,4,35L292.08,58.19l2.63,23.06Z"/><path class="cls-4" d="M341.77,60.72l13.25.17,0,1.1a23.4,23.4,0,0,1-1,6.61,14.23,14.23,0,0,1-2.89,5,14.4,14.4,0,0,1-11.46,5.06,15.27,15.27,0,0,1-11.43-5.18,16.93,16.93,0,0,1-4.57-12.18,17.08,17.08,0,0,1,5.11-12.2,16,16,0,0,1,12-4.9,15.66,15.66,0,0,1,7,1.68,20,20,0,0,1,6,5.24l-3.51,3.37q-3.84-5.49-9.51-5.56a11.34,11.34,0,0,0-8.6,3.53,12.41,12.41,0,0,0-3.62,8.9,11.88,11.88,0,0,0,3.67,9.18,11.21,11.21,0,0,0,7.73,3.44,9.53,9.53,0,0,0,6.46-2.42,9,9,0,0,0,3.29-6l-8-.1Z"/><path class="cls-4" d="M395.53,56.35,391.23,58A7,7,0,0,0,389.65,55a5.41,5.41,0,0,0-6-.67A3.69,3.69,0,0,0,381.8,57q-.45,2.39,2.7,4.52l2.88,1.94a13.68,13.68,0,0,1,4.87,5,9.27,9.27,0,0,1,.7,6,10.27,10.27,0,0,1-4.3,6.87,9.88,9.88,0,0,1-7.8,1.54,9.71,9.71,0,0,1-6.29-3.83,12.08,12.08,0,0,1-1.94-7.72l5-.16a8.72,8.72,0,0,0,.39,4.19,5,5,0,0,0,3.88,3,4.93,4.93,0,0,0,4-.82,5.49,5.49,0,0,0,2.2-3.62,5.76,5.76,0,0,0,.08-1.79,4.59,4.59,0,0,0-.52-1.62,6.75,6.75,0,0,0-1.16-1.52,13.37,13.37,0,0,0-1.83-1.5l-2.79-1.91Q375.95,61.43,377,56a8,8,0,0,1,3.87-5.61,9.7,9.7,0,0,1,7.22-1.18Q393.52,50.26,395.53,56.35Z"/><path class="cls-4" d="M412.92,61l-7.81,27.38L400.47,87l7.81-27.38-7.07-2.11L402.5,53l18.76,5.61L420,63.11Z"/><path class="cls-4" d="M432.26,62.69l-7.37,18.54q-1.58,4-1.06,6.33A6.7,6.7,0,0,0,428,92.4a6.42,6.42,0,0,0,6.32-.44q1.95-1.24,3.55-5.28l7.36-18.54L449.73,70l-7.87,19.82a12,12,0,0,1-6.11,6.79,11.3,11.3,0,0,1-9.45.12,11.69,11.69,0,0,1-6.65-6.88,12.31,12.31,0,0,1,.26-9.24l7.87-19.82Z"/><path class="cls-4" d="M443.64,103.87l15.67-29.08,5.87,3.36a24,24,0,0,1,6.2,4.69,14.57,14.57,0,0,1,3.21,5.61,16.38,16.38,0,0,1-1.48,13.27A15.46,15.46,0,0,1,462.75,110a14.67,14.67,0,0,1-6.3.16,24,24,0,0,1-7-3Zm6.44-1.71,1.9,1.09a17.53,17.53,0,0,0,5.07,2.09,10.68,10.68,0,0,0,4.53-.14,11.17,11.17,0,0,0,7.27-5.92,11.88,11.88,0,0,0,1.1-9.52q-1.33-4.24-6.74-7.34l-1.9-1.09Z"/><path class="cls-4" d="M491.61,94.64l-17.86,27.71-4-2.76,17.86-27.71Z"/><path class="cls-4" d="M488.71,112.05a15.64,15.64,0,0,1,11.17-6.21,15.82,15.82,0,0,1,12.29,3.74,16.61,16.61,0,0,1,6.05,11.56,17.09,17.09,0,0,1-3.58,12.71,15.77,15.77,0,0,1-11.23,6.3,16.06,16.06,0,0,1-12.36-3.82,17.19,17.19,0,0,1-6-10.69A16.78,16.78,0,0,1,488.71,112.05Zm3.75,3.2a12.37,12.37,0,0,0-2.73,9.38A11.87,11.87,0,0,0,494,132.7a11.18,11.18,0,0,0,8.81,2.68,11.81,11.81,0,0,0,8.11-4.72,12.54,12.54,0,0,0,2.75-9.17,11.7,11.7,0,0,0-4.36-8.27,11.09,11.09,0,0,0-8.76-2.64A11.59,11.59,0,0,0,492.46,115.25Z"/><path class="cls-4" d="M540.34,144.11l-4.41-1.18a7.29,7.29,0,0,0,.31-3.36,5.05,5.05,0,0,0-1.41-2.45,4.83,4.83,0,0,0-3.16-1.61,3.47,3.47,0,0,0-2.94,1.09q-1.68,1.71-.25,5.32l1.31,3.3a14.52,14.52,0,0,1,1.25,7,9.14,9.14,0,0,1-2.71,5.41,9.73,9.73,0,0,1-7.28,3.18,9.92,9.92,0,0,1-7.24-3.28,10.31,10.31,0,0,1-3.07-6.86,12.11,12.11,0,0,1,2.62-7.54l4.21,2.8a8.75,8.75,0,0,0-2,3.71,5.29,5.29,0,0,0,1.57,4.72,5,5,0,0,0,3.72,1.64,5.19,5.19,0,0,0,3.79-1.71,6,6,0,0,0,1-1.44,4.82,4.82,0,0,0,.45-1.64,7.3,7.3,0,0,0-.12-1.94,15.37,15.37,0,0,0-.68-2.32l-1.25-3.21q-2.64-6.87,1.19-10.78a7.65,7.65,0,0,1,6.24-2.4,9.78,9.78,0,0,1,6.57,3.25Q542,137.88,540.34,144.11Z"/><path class="cls-4" d="M267.57,569.19H254.7v7.71h12.49v4.55H254.7v10.72h12.87v4.55H249.86V564.64h17.71Z"/><path class="cls-4" d="M284.79,579.93,280.92,582c-.61-1.25-1.36-1.87-2.26-1.87a1.56,1.56,0,0,0-1.1.42,1.42,1.42,0,0,0-.46,1.09q0,1.17,2.7,2.31a16,16,0,0,1,5,2.95,5,5,0,0,1,1.29,3.63,6.38,6.38,0,0,1-2.16,4.91,7.39,7.39,0,0,1-5.07,1.87q-5.1,0-7.21-5l4-1.85a8.53,8.53,0,0,0,1.26,1.85,2.89,2.89,0,0,0,2,.79q2.37,0,2.37-2.16c0-.83-.61-1.61-1.83-2.33l-1.41-.68-1.44-.69a8.77,8.77,0,0,1-2.86-2,4.9,4.9,0,0,1-1.06-3.26,5.77,5.77,0,0,1,1.81-4.37,6.31,6.31,0,0,1,4.48-1.72Q282.9,575.92,284.79,579.93Z"/><path class="cls-4" d="M295.11,580.84v15.88h-4.67V580.84h-2v-4.36h2v-7.42h4.67v7.42h3.64v4.36Z"/><path class="cls-4" d="M302.66,594.39a2.75,2.75,0,0,1,.85-2,2.92,2.92,0,1,1-.85,2Z"/><path class="cls-4" d="M335.9,592.17h12v4.55H326.3l11.14-13.49q1.63-2,2.75-3.49a27.26,27.26,0,0,0,1.69-2.47,7,7,0,0,0,1.19-3.51,5,5,0,0,0-1.58-3.76,5.45,5.45,0,0,0-3.91-1.52q-4.86,0-5.57,5.76h-4.82q1.17-10.14,10.25-10.14a10.36,10.36,0,0,1,7.35,2.78,9,9,0,0,1,3,6.9,10.47,10.47,0,0,1-1.39,5.13,25.12,25.12,0,0,1-2.07,3.11q-1.35,1.79-3.44,4.25Z"/><path class="cls-4" d="M353.31,580.47q0-7.66,3.57-12.24a9.34,9.34,0,0,1,15.5,0Q376,572.8,376,580.68t-3.58,12.42a9.5,9.5,0,0,1-7.73,4.14,9.61,9.61,0,0,1-7.77-4.14Q353.31,588.52,353.31,580.47Zm4.76,0a18.9,18.9,0,0,0,1.85,8.87q1.84,3.46,4.71,3.47t4.72-3.47a21.24,21.24,0,0,0,0-17.43q-1.87-3.45-4.72-3.45c-1.88,0-3.45,1.15-4.69,3.45A17.66,17.66,0,0,0,358.07,580.49Z"/><path class="cls-4" d="M386,569.17h-5.55l2.66-4.53h7.73v32.08H386Z"/><path class="cls-4" d="M406.85,597.82l-3.55-2.64L411,584.73c-.41,0-.76.1-1,.12s-.53,0-.71,0a9,9,0,0,1-6.73-3,9.86,9.86,0,0,1-2.83-7.1,10.74,10.74,0,0,1,10.7-10.72,10.68,10.68,0,0,1,7.63,3.11,9.8,9.8,0,0,1,3.24,7.32c0,2.49-1.06,5.18-3.16,8.08Zm-2.49-23.36a6,6,0,0,0,1.76,4.37,5.87,5.87,0,0,0,4.3,1.78,6.07,6.07,0,1,0-6.06-6.15Z"/></g></g></svg>